{"title":"Capote [2005] BRRip XviD - CODY","uid":7551074,"size":841997695,"categoryP":"video","categoryS":"movies","magnet":"?xt=urn:btih:3fabfa39503d521b0cb5cd5c6dfbfc1ad3dcc553&amp;dn=Capote+%5B2005%5D+BRRip+XviD+-+CODY&amp;tr=udp%3A%2F%2Ftracker.openbittorrent.com%3A80&amp;tr=udp%3A%2F%2Fopen.demonii.com%3A1337&amp;tr=udp%3A%2F%2Ftracker.coppersurfer.tk%3A6969&amp;tr=udp%3A%2F%2Fexodus.desync.com%3A6969","seeders":2,"leechers":0,"uploader":"CODYBOSS1969","files":5,"time":1345483723,"description":"General\nComplete name                            : Capote [2005] BRRip XviD - CODY.avi\nFormat                                   : AVI\nFormat/Info                              : Audio Video Interleave\nFile size                                : 803 MiB\nDuration                                 : 1h 54mn\nOverall bit rate                         : 982 Kbps\nWriting application                      : VirtualDubMod 1.5.10.3 | www.virtualdub-fr.org || (build 2550/release)\nWriting library                          : VirtualDubMod build 2550/release\n\nVideo\nID                                       : 0\nFormat                                   : MPEG-4 Visual\nFormat profile                           : Advanced Simple@L5\nFormat settings, BVOP                    : 4\nFormat settings, QPel                    : No\nFormat settings, GMC                     : No warppoints\nFormat settings, Matrix                  : Default (H.263)\nCodec ID                                 : XVID\nCodec ID/Hint                            : XviD\nDuration                                 : 1h 54mn\nBit rate                                 : 845 Kbps\nWidth                                    : 720 pixels\nHeight                                   : 304 pixels\nDisplay aspect ratio                     : 2.35:1\nFrame rate                               : 23.976 fps\nColor space                              : YUV\nChroma subsampling                       : 4:2:0\nBit depth                                : 8 bits\nScan type                                : Progressive\nCompression mode                         : Lossy\nBits/(Pixel*Frame)                       : 0.161\nStream size                              : 691 MiB (86%)\nWriting library                          : XviD 65\n\nAudio\nID                                       : 1\nFormat                                   : MPEG Audio\nFormat version                           : Version 1\nFormat profile                           : Layer 3\nCodec ID                                 : 55\nCodec ID/Hint                            : MP3\nDuration                                 : 1h 54mn\nBit rate mode                            : Constant\nBit rate                                 : 128 Kbps\nChannel(s)                               : 2 channels\nSampling rate                            : 48.0 KHz\nCompression mode                         : Lossy\nStream size                              : 105 MiB (13%)\nAlignment                                : Aligned on interleaves\nInterleave, duration                     : 42 ms (1.00 video frame)\nInterleave, preload duration             : 504 ms\nWriting library                          : LAME3.99r\nEncoding settings                        : -m s -V 4 -q 2 -lowpass 17 -b 128\n\n\nIMDB link:                                &lt;a href=&quot; http://www.imdb.com/title/tt0379725/&quot; rel=&quot;nofollow&quot; target=&quot;_NEW&quot;&gt; http://www.imdb.com/title/tt0379725/&lt;/a&gt;\n\n\nSubtitles included                       : Romanian\n\n\nPlease seed at least 1,5:1. This way this torrent has a chance to survive!\n\n\nThanks. Enjoy! \t\t\t\t                ","torrent":{"xt":"urn:btih:3fabfa39503d521b0cb5cd5c6dfbfc1ad3dcc553","amp;dn":"Capote+%5B2005%5D+BRRip+XviD+-+CODY","amp;tr":["udp%3A%2F%2Ftracker.openbittorrent.com%3A80","udp%3A%2F%2Fopen.demonii.com%3A1337","udp%3A%2F%2Ftracker.coppersurfer.tk%3A6969","udp%3A%2F%2Fexodus.desync.com%3A6969"],"infoHash":"3fabfa39503d521b0cb5cd5c6dfbfc1ad3dcc553","infoHashBuffer":{"type":"Buffer","data":[63,171,250,57,80,61,82,27,12,181,205,92,109,251,252,26,211,220,197,83]},"announce":[],"urlList":[]}}